<?xml version="1.0" encoding="utf-8"?><!-- Uploaded to: SVG Repo, www.svgrepo.com, Generator: SVG Repo Mixer Tools -->
<svg fill="#000000" width="800px" height="800px" viewBox="0 0 24 24" id="adhesive-tape" data-name="Flat Line" xmlns="http://www.w3.org/2000/svg" class="icon flat-line"><path id="secondary" d="M11,4a8,8,0,1,0,8,8A8,8,0,0,0,11,4Zm0,10a2,2,0,1,1,2-2A2,2,0,0,1,11,14Z" style="fill: rgb(44, 169, 188); stroke-width: 2;"></path><path id="primary" d="M11,14a2,2,0,1,1,2-2A2,2,0,0,1,11,14Zm6.92,2A8,8,0,0,1,11,20h9a1,1,0,0,0,1-1V17a1,1,0,0,0-1-1ZM11,4a8,8,0,1,0,8,8A8,8,0,0,0,11,4Z" style="fill: none; stroke: rgb(0, 0, 0); stroke-linecap: round; stroke-linejoin: round; stroke-width: 2;"></path></svg>